<svg xmlns="http://www.w3.org/2000/svg" xmlns:xlink="http://www.w3.org/1999/xlink" width="500" zoomAndPan="magnify" viewBox="0 0 375 149.999998" height="200" preserveAspectRatio="xMidYMid meet" version="1.0"><defs><g/><clipPath id="0c9b69755c"><rect x="0" width="127" y="0" height="85"/></clipPath><clipPath id="c27552051b"><path d="M 3 6 L 53 6 L 53 40 L 3 40 Z M 3 6 " clip-rule="nonzero"/></clipPath><clipPath id="9846fcc6b4"><path d="M 1.539062 11.207031 L 50.199219 4.007812 L 54.640625 34.027344 L 5.976562 41.222656 Z M 1.539062 11.207031 " clip-rule="nonzero"/></clipPath><clipPath id="024aa25ad8"><path d="M 16.546875 8.988281 L 35.15625 6.234375 C 39.136719 5.644531 43.1875 6.660156 46.417969 9.058594 C 49.648438 11.457031 51.792969 15.042969 52.382812 19.023438 C 52.972656 23.003906 51.957031 27.054688 49.558594 30.285156 C 47.160156 33.515625 43.574219 35.664062 39.59375 36.253906 L 20.984375 39.003906 C 17.003906 39.59375 12.953125 38.578125 9.722656 36.179688 C 6.492188 33.78125 4.347656 30.195312 3.757812 26.214844 C 3.167969 22.234375 4.183594 18.183594 6.582031 14.953125 C 8.980469 11.722656 12.566406 9.574219 16.546875 8.988281 Z M 16.546875 8.988281 " clip-rule="nonzero"/></clipPath><clipPath id="74b6422ca3"><path d="M 0.121094 0 L 50 0 L 50 33.679688 L 0.121094 33.679688 Z M 0.121094 0 " clip-rule="nonzero"/></clipPath><clipPath id="e91f31c2c2"><path d="M -1.460938 5.207031 L 47.199219 -1.992188 L 51.640625 28.027344 L 2.976562 35.222656 Z M -1.460938 5.207031 " clip-rule="nonzero"/></clipPath><clipPath id="69ea9710e7"><path d="M 13.546875 2.988281 L 32.15625 0.234375 C 36.136719 -0.355469 40.1875 0.660156 43.417969 3.058594 C 46.648438 5.457031 48.792969 9.042969 49.382812 13.023438 C 49.972656 17.003906 48.957031 21.054688 46.558594 24.285156 C 44.160156 27.515625 40.574219 29.664062 36.59375 30.253906 L 17.984375 33.003906 C 14.003906 33.59375 9.953125 32.578125 6.722656 30.179688 C 3.492188 27.78125 1.347656 24.195312 0.757812 20.214844 C 0.167969 16.234375 1.183594 12.183594 3.582031 8.953125 C 5.980469 5.722656 9.566406 3.574219 13.546875 2.988281 Z M 13.546875 2.988281 " clip-rule="nonzero"/></clipPath><clipPath id="913ead469c"><rect x="0" width="50" y="0" height="34"/></clipPath><clipPath id="d43d963116"><rect x="0" width="34" y="0" height="42"/></clipPath><clipPath id="ed825856cb"><rect x="0" width="56" y="0" height="44"/></clipPath><clipPath id="014c2300c2"><path d="M 327 39.957031 L 345 39.957031 L 345 55 L 327 55 Z M 327 39.957031 " clip-rule="nonzero"/></clipPath><clipPath id="65f6dd1775"><path d="M 327 76 L 370 76 L 370 108.207031 L 327 108.207031 Z M 327 76 " clip-rule="nonzero"/></clipPath><clipPath id="63fcb2b588"><path d="M 326 76 L 370.230469 76 L 370.230469 92 L 326 92 Z M 326 76 " clip-rule="nonzero"/></clipPath><clipPath id="b9c22f74f4"><path d="M 326 73 L 370.230469 73 L 370.230469 84 L 326 84 Z M 326 73 " clip-rule="nonzero"/></clipPath><clipPath id="b4e36a9eff"><path d="M 325.230469 62 L 329 62 L 329 67 L 325.230469 67 Z M 325.230469 62 " clip-rule="nonzero"/></clipPath><clipPath id="d403d91c1a"><path d="M 366 67 L 370.230469 67 L 370.230469 72 L 366 72 Z M 366 67 " clip-rule="nonzero"/></clipPath><clipPath id="fbe7140464"><path d="M 32 79 L 36 79 L 36 109.074219 L 32 109.074219 Z M 32 79 " clip-rule="nonzero"/></clipPath><clipPath id="45edbd2551"><path d="M 9 40.824219 L 57.171875 40.824219 L 57.171875 86 L 9 86 Z M 9 40.824219 " clip-rule="nonzero"/></clipPath><clipPath id="168064c8a8"><rect x="0" width="127" y="0" height="85"/></clipPath></defs><g transform="matrix(1, 0, 0, 1, 54, 31)"><g clip-path="url(#0c9b69755c)"><g fill="#000000" fill-opacity="1"><g transform="translate(11.394653, 63.688978)"><g><path d="M 30.40625 -36.375 L 30.40625 -25.5 C 31.257812 -27.09375 32.492188 -28.363281 34.109375 -29.3125 C 35.734375 -30.269531 37.660156 -30.75 39.890625 -30.75 C 42.128906 -30.75 44.117188 -30.207031 45.859375 -29.125 C 47.609375 -28.050781 48.96875 -26.5625 49.9375 -24.65625 C 50.90625 -22.757812 51.390625 -20.601562 51.390625 -18.1875 C 51.390625 -15.507812 50.894531 -13.191406 49.90625 -11.234375 C 48.925781 -9.285156 47.550781 -7.800781 45.78125 -6.78125 C 44.007812 -5.757812 42.007812 -5.25 39.78125 -5.25 C 38.40625 -5.25 37.160156 -5.394531 36.046875 -5.6875 L 36.046875 -10.265625 C 36.785156 -10.078125 37.546875 -9.984375 38.328125 -9.984375 C 40.410156 -9.984375 42.117188 -10.695312 43.453125 -12.125 C 44.796875 -13.5625 45.46875 -15.488281 45.46875 -17.90625 C 45.46875 -20.21875 44.78125 -22.097656 43.40625 -23.546875 C 42.03125 -24.992188 40.265625 -25.71875 38.109375 -25.71875 C 35.578125 -25.71875 33.660156 -24.851562 32.359375 -23.125 C 31.054688 -21.394531 30.40625 -19.285156 30.40625 -16.796875 L 30.40625 0 L 24.546875 0 L 24.546875 -14.5 C 23.660156 -13.195312 22.5 -12.179688 21.0625 -11.453125 C 19.632812 -10.734375 17.96875 -10.375 16.0625 -10.375 C 12.3125 -10.375 9.441406 -11.609375 7.453125 -14.078125 C 5.460938 -16.554688 4.46875 -19.898438 4.46875 -24.109375 L 4.46875 -36.375 L -1.34375 -36.375 L -1.34375 -41.296875 L 56.296875 -41.296875 L 56.296875 -36.375 Z M 24.546875 -36.375 L 10.328125 -36.375 L 10.328125 -24.109375 C 10.328125 -21.347656 10.921875 -19.195312 12.109375 -17.65625 C 13.296875 -16.113281 15.082031 -15.34375 17.46875 -15.34375 C 19.695312 -15.34375 21.429688 -16.085938 22.671875 -17.578125 C 23.921875 -19.066406 24.546875 -20.90625 24.546875 -23.09375 Z M 24.546875 -36.375 "/></g></g></g><g fill="#000000" fill-opacity="1"><g transform="translate(47.27688, 63.688978)"><g><path d="M -7.921875 16.734375 C -8.410156 16.773438 -9.117188 16.796875 -10.046875 16.796875 C -12.835938 16.796875 -15.144531 16.015625 -16.96875 14.453125 C -18.789062 12.890625 -19.703125 10.675781 -19.703125 7.8125 C -19.703125 4.90625 -18.675781 2.597656 -16.625 0.890625 C -14.582031 -0.816406 -11.90625 -1.671875 -8.59375 -1.671875 C -3.90625 -1.671875 -0.410156 -0.203125 1.890625 2.734375 C 4.203125 5.671875 5.359375 9.503906 5.359375 14.234375 C 5.359375 15.234375 5.335938 15.972656 5.296875 16.453125 L 0.5 16.453125 L 0.5 13.84375 C 0.5 10.300781 -0.304688 7.5625 -1.921875 5.625 C -3.546875 3.695312 -5.769531 2.734375 -8.59375 2.734375 C -10.488281 2.734375 -12.019531 3.1875 -13.1875 4.09375 C -14.363281 5.007812 -14.953125 6.269531 -14.953125 7.875 C -14.953125 9.320312 -14.445312 10.460938 -13.4375 11.296875 C -12.4375 12.128906 -11.191406 12.546875 -9.703125 12.546875 C -9.410156 12.546875 -8.816406 12.507812 -7.921875 12.4375 Z M -7.921875 16.734375 "/></g></g></g><g fill="#000000" fill-opacity="1"><g transform="translate(66.343327, 63.688978)"><g><path d="M 39 -36.375 L 39 -29.453125 C 41.457031 -28.710938 43.398438 -27.265625 44.828125 -25.109375 C 46.265625 -22.953125 46.984375 -20.253906 46.984375 -17.015625 C 46.984375 -14.335938 46.460938 -11.957031 45.421875 -9.875 C 44.378906 -7.789062 42.832031 -6.15625 40.78125 -4.96875 C 38.738281 -3.78125 36.265625 -3.1875 33.359375 -3.1875 C 33.066406 -3.1875 32.4375 -3.222656 31.46875 -3.296875 L 31.46875 -8.421875 L 33.03125 -8.3125 C 35.5625 -8.3125 37.53125 -9.09375 38.9375 -10.65625 C 40.351562 -12.21875 41.0625 -14.300781 41.0625 -16.90625 C 41.0625 -19.25 40.484375 -21.15625 39.328125 -22.625 C 38.179688 -24.09375 36.566406 -24.828125 34.484375 -24.828125 C 32.253906 -24.828125 30.570312 -24 29.4375 -22.34375 C 28.300781 -20.6875 27.734375 -18.460938 27.734375 -15.671875 L 27.734375 -14.671875 L 22.828125 -14.671875 L 22.828125 -15.671875 C 22.828125 -18.429688 22.285156 -20.644531 21.203125 -22.3125 C 20.117188 -23.988281 18.5 -24.828125 16.34375 -24.828125 C 14.1875 -24.828125 12.515625 -24.101562 11.328125 -22.65625 C 10.140625 -21.207031 9.546875 -19.289062 9.546875 -16.90625 C 9.546875 -14.300781 10.25 -12.21875 11.65625 -10.65625 C 13.070312 -9.09375 15.046875 -8.3125 17.578125 -8.3125 L 19.140625 -8.421875 L 19.140625 -3.296875 C 18.171875 -3.222656 17.535156 -3.1875 17.234375 -3.1875 C 14.335938 -3.1875 11.863281 -3.78125 9.8125 -4.96875 C 7.769531 -6.15625 6.226562 -7.789062 5.1875 -9.875 C 4.144531 -11.957031 3.625 -14.335938 3.625 -17.015625 C 3.625 -19.734375 4.132812 -22.054688 5.15625 -23.984375 C 6.1875 -25.921875 7.601562 -27.398438 9.40625 -28.421875 C 11.207031 -29.453125 13.257812 -29.96875 15.5625 -29.96875 C 18.207031 -29.96875 20.316406 -29.25 21.890625 -27.8125 C 23.472656 -26.382812 24.582031 -24.59375 25.21875 -22.4375 L 25.390625 -22.4375 C 25.941406 -24.289062 26.859375 -25.882812 28.140625 -27.21875 C 29.429688 -28.5625 31.132812 -29.421875 33.25 -29.796875 L 33.25 -36.375 L -1.34375 -36.375 L -1.34375 -41.296875 L 51.890625 -41.296875 L 51.890625 -36.375 Z M 39 -36.375 "/></g></g></g></g></g><g transform="matrix(1, 0, 0, 1, 162, 52)"><g clip-path="url(#ed825856cb)"><g clip-path="url(#c27552051b)"><g clip-path="url(#9846fcc6b4)"><g clip-path="url(#024aa25ad8)"><g transform="matrix(1, 0, 0, 1, 3, 6)"><g clip-path="url(#913ead469c)"><g clip-path="url(#74b6422ca3)"><g clip-path="url(#e91f31c2c2)"><g clip-path="url(#69ea9710e7)"><path fill="#ffdce5" d="M -1.460938 5.207031 L 47.199219 -1.992188 L 51.640625 28.027344 L 2.976562 35.222656 Z M -1.460938 5.207031 " fill-opacity="1" fill-rule="nonzero"/></g></g></g></g></g></g></g></g><g transform="matrix(1, 0, 0, 1, 11, 1)"><g clip-path="url(#d43d963116)"><g fill="#fe4aa0" fill-opacity="1"><g transform="translate(5.398689, 31.612041)"><g><path d="M 7.921875 -0.9375 C 6.617188 -0.738281 5.394531 -0.859375 4.25 -1.296875 C 3.101562 -1.742188 2.144531 -2.460938 1.375 -3.453125 C 0.613281 -4.453125 0.128906 -5.660156 -0.078125 -7.078125 C -0.285156 -8.492188 -0.160156 -9.789062 0.296875 -10.96875 C 0.753906 -12.15625 1.476562 -13.117188 2.46875 -13.859375 C 3.46875 -14.609375 4.625 -15.082031 5.9375 -15.28125 C 7.269531 -15.476562 8.515625 -15.359375 9.671875 -14.921875 C 10.828125 -14.492188 11.796875 -13.78125 12.578125 -12.78125 C 13.359375 -11.789062 13.851562 -10.585938 14.0625 -9.171875 C 14.269531 -7.773438 14.132812 -6.484375 13.65625 -5.296875 C 13.1875 -4.109375 12.445312 -3.132812 11.4375 -2.375 C 10.425781 -1.613281 9.253906 -1.132812 7.921875 -0.9375 Z M 7.546875 -3.4375 C 8.296875 -3.539062 8.96875 -3.816406 9.5625 -4.265625 C 10.15625 -4.722656 10.597656 -5.332031 10.890625 -6.09375 C 11.191406 -6.851562 11.269531 -7.734375 11.125 -8.734375 C 10.976562 -9.742188 10.65625 -10.566406 10.15625 -11.203125 C 9.664062 -11.847656 9.078125 -12.300781 8.390625 -12.5625 C 7.710938 -12.820312 7 -12.894531 6.25 -12.78125 C 5.507812 -12.675781 4.851562 -12.398438 4.28125 -11.953125 C 3.707031 -11.503906 3.285156 -10.90625 3.015625 -10.15625 C 2.753906 -9.40625 2.695312 -8.523438 2.84375 -7.515625 C 3.070312 -6.023438 3.625 -4.925781 4.5 -4.21875 C 5.382812 -3.519531 6.398438 -3.257812 7.546875 -3.4375 Z M 7.546875 -3.4375 "/></g></g></g><g fill="#fe4aa0" fill-opacity="1"><g transform="translate(21.446056, 29.238373)"><g><path d="M 3.015625 -12.5625 C 3.316406 -13.320312 3.789062 -13.953125 4.4375 -14.453125 C 5.082031 -14.953125 5.878906 -15.269531 6.828125 -15.40625 L 7.265625 -12.4375 L 6.53125 -12.328125 C 5.40625 -12.160156 4.597656 -11.75 4.109375 -11.09375 C 3.617188 -10.4375 3.476562 -9.40625 3.6875 -8 L 4.765625 -0.703125 L 1.890625 -0.28125 L -0.15625 -14.140625 L 2.71875 -14.5625 Z M 3.015625 -12.5625 "/></g></g></g></g></g></g></g><g clip-path="url(#014c2300c2)"><path fill="#073e14" d="M 341.203125 48.652344 C 341.660156 47.570312 342.179688 46.121094 342.433594 44.980469 C 342.128906 45.1875 341.8125 45.4375 341.523438 45.71875 C 341.035156 46.199219 340.273438 46.167969 339.820312 45.644531 C 339.71875 45.527344 339.640625 45.394531 339.589844 45.257812 C 339.515625 45.058594 339.363281 44.648438 339.21875 44.246094 L 339.195312 44.1875 C 339.003906 44.839844 338.71875 45.53125 338.261719 46.152344 C 337.851562 46.710938 337.09375 46.808594 336.570312 46.375 C 336.421875 46.25 336.304688 46.09375 336.230469 45.921875 L 336.226562 45.921875 C 336.191406 45.847656 336.148438 45.761719 336.101562 45.667969 C 335.988281 45.453125 335.867188 45.25 335.742188 45.0625 C 335.832031 45.332031 335.9375 45.617188 336.050781 45.910156 C 336.304688 46.566406 336.011719 47.316406 335.394531 47.582031 C 335.019531 47.75 334.609375 47.695312 334.292969 47.480469 C 333.777344 47.167969 333.175781 46.816406 332.617188 46.535156 C 332.738281 46.898438 332.898438 47.230469 333.078125 47.429688 C 333.539062 47.945312 333.519531 48.757812 333.035156 49.246094 C 332.847656 49.433594 332.621094 49.546875 332.382812 49.585938 C 331.960938 49.65625 331.582031 49.703125 331.25 49.734375 C 331.738281 50.097656 332.375 50.429688 333.066406 50.714844 C 335.324219 51.640625 338.007812 52.015625 338.972656 51.847656 C 339.796875 51.703125 340.148438 50.929688 340.691406 49.738281 C 340.832031 49.433594 340.984375 49.101562 341.203125 48.652344 Z M 344.800781 45.472656 C 344.511719 46.8125 343.914062 48.496094 343.394531 49.722656 C 343.394531 49.722656 343.363281 49.792969 343.363281 49.792969 C 343.210938 50.101562 343.03125 50.496094 342.867188 50.855469 C 341.988281 52.777344 341.417969 54.019531 339.363281 54.378906 C 338.113281 54.597656 334.828125 54.191406 332.199219 53.105469 C 330.238281 52.300781 328.550781 51.085938 328.011719 49.402344 C 327.636719 48.226562 327.792969 47.691406 328.890625 47.339844 C 329.152344 47.257812 329.414062 47.25 329.804688 47.246094 C 329.941406 47.242188 330.105469 47.238281 330.296875 47.230469 C 330.261719 47.121094 330.230469 47.011719 330.199219 46.90625 C 329.996094 46.15625 329.957031 45.378906 330.074219 44.777344 C 330.09375 44.496094 330.203125 44.21875 330.390625 44.003906 C 330.421875 43.960938 330.457031 43.925781 330.492188 43.894531 L 330.496094 43.894531 C 331.066406 43.378906 331.925781 43.460938 332.875 43.855469 L 332.925781 43.878906 C 332.738281 42.6875 332.96875 41.785156 333.777344 41.367188 C 333.777344 41.367188 333.84375 41.332031 333.84375 41.332031 C 334.539062 41.015625 335.492188 41.300781 336.371094 42.054688 C 336.597656 42.246094 336.828125 42.472656 337.054688 42.730469 C 337.101562 42.503906 337.136719 42.289062 337.167969 42.101562 L 337.171875 42.101562 C 337.273438 41.472656 337.351562 41.015625 337.691406 40.644531 C 338.507812 39.746094 339.265625 39.765625 340.03125 40.464844 C 340.527344 40.917969 340.871094 41.722656 341.25 42.742188 C 341.457031 42.605469 341.660156 42.488281 341.855469 42.386719 C 342.800781 41.890625 343.722656 41.792969 344.289062 42.253906 C 345.035156 42.855469 345.101562 44.070312 344.800781 45.472656 Z M 342.847656 44.390625 C 342.878906 44.359375 342.882812 44.332031 342.835938 44.296875 C 342.730469 44.210938 342.785156 44.285156 342.847656 44.390625 Z M 334.835938 43.683594 C 334.828125 43.683594 334.824219 43.683594 334.8125 43.6875 C 334.71875 43.738281 334.75 43.722656 334.835938 43.683594 Z M 332.058594 45.929688 C 332.117188 45.820312 332.164062 45.746094 332.050781 45.847656 L 332.046875 45.851562 L 332.050781 45.851562 C 331.996094 45.898438 332.011719 45.917969 332.058594 45.929688 Z M 332.058594 45.929688 " fill-opacity="1" fill-rule="nonzero"/></g><path fill="#ff9eb0" d="M 342.292969 49.199219 C 343.15625 47.160156 344.25 43.828125 343.5625 43.273438 C 343.214844 42.992188 341.777344 43.726562 340.707031 44.773438 C 339.832031 42.46875 339.367188 40.648438 338.554688 41.539062 C 338.316406 41.804688 338.351562 43.953125 337.3125 45.363281 C 336.453125 43.480469 334.875 42.226562 334.304688 42.519531 C 333.78125 42.792969 334.191406 44.457031 334.9375 46.398438 C 333.609375 45.585938 331.671875 44.511719 331.269531 44.871094 C 330.953125 45.160156 331.367188 47.378906 332.203125 48.316406 C 329.476562 48.761719 328.910156 48.21875 329.152344 48.988281 C 330.152344 52.117188 337.308594 53.4375 339.167969 53.113281 C 340.921875 52.808594 341.222656 51.375 342.292969 49.199219 Z M 342.292969 49.199219 " fill-opacity="1" fill-rule="evenodd"/><path fill="#ed677f" d="M 338.671875 43.054688 C 338.625 43.273438 338.566406 43.503906 338.496094 43.734375 C 338.390625 44.375 337.894531 45.601562 337.371094 46.316406 C 336.703125 44.851562 335.332031 43.714844 334.886719 43.945312 C 334.480469 44.15625 334.929688 45.714844 335.511719 47.226562 C 334.480469 46.59375 332.691406 45.613281 332.382812 45.894531 C 332.132812 46.117188 332.523438 48.039062 333.175781 48.769531 C 331.054688 49.117188 330.078125 48.910156 330.269531 49.507812 C 331.042969 51.941406 337.222656 52.433594 338.667969 52.179688 C 340.03125 51.941406 340.265625 50.828125 341.097656 49.136719 C 341.769531 47.550781 343.511719 44.71875 342.980469 44.289062 C 342.710938 44.070312 341.011719 44.929688 340.179688 45.742188 C 339.660156 43.957031 339.453125 42.390625 338.667969 43.054688 Z M 338.671875 43.054688 " fill-opacity="1" fill-rule="evenodd"/><path fill="#073e14" d="M 346.804688 69.316406 L 346.933594 69.261719 L 347.003906 69.234375 C 350.019531 67.933594 352.28125 65.75 353.558594 63.328125 C 354.796875 60.980469 355.089844 58.425781 354.203125 56.289062 L 354.179688 56.226562 L 354.167969 56.207031 C 353.132812 53.792969 350.671875 51.8125 347.675781 50.691406 C 344.699219 49.582031 341.230469 49.339844 338.085938 50.375 L 338.03125 50.390625 L 338 50.402344 C 335.113281 51.382812 332.90625 53.789062 331.625 56.617188 C 330.335938 59.472656 329.996094 62.714844 330.859375 65.347656 L 330.875 65.398438 L 330.886719 65.425781 C 330.941406 65.585938 331.003906 65.75 331.070312 65.910156 C 331.914062 67.949219 333.597656 69.546875 335.933594 70.34375 C 338.394531 71.183594 341.582031 71.15625 345.308594 69.886719 C 345.796875 69.71875 346.292969 69.53125 346.804688 69.320312 Z M 348.035156 71.890625 L 347.90625 71.945312 L 347.90625 71.941406 C 347.90625 71.941406 347.898438 71.945312 347.898438 71.945312 C 347.335938 72.179688 346.773438 72.390625 346.222656 72.578125 C 341.859375 74.066406 338.042969 74.066406 335.023438 73.035156 C 331.878906 71.960938 329.601562 69.789062 328.445312 67 C 328.355469 66.785156 328.273438 66.566406 328.195312 66.339844 L 328.199219 66.339844 C 328.199219 66.339844 328.195312 66.332031 328.195312 66.332031 L 328.1875 66.300781 L 328.160156 66.222656 C 327.074219 62.917969 327.464844 58.917969 329.035156 55.449219 C 330.617188 51.953125 333.402344 48.960938 337.089844 47.707031 C 337.089844 47.707031 337.09375 47.707031 337.09375 47.707031 L 337.132812 47.695312 L 337.207031 47.667969 C 340.980469 46.425781 345.128906 46.710938 348.664062 48.03125 C 352.355469 49.40625 355.417969 51.933594 356.773438 55.066406 L 356.804688 55.132812 L 356.832031 55.195312 C 358.050781 58.140625 357.695312 61.570312 356.074219 64.652344 C 354.511719 67.617188 351.765625 70.273438 348.128906 71.847656 C 348.097656 71.863281 348.066406 71.875 348.035156 71.890625 Z M 348.035156 71.890625 " fill-opacity="1" fill-rule="nonzero"/><path fill="#4a8d0c" d="M 347.355469 70.632812 C 354.199219 67.789062 357.664062 60.800781 355.492188 55.679688 C 353.15625 50.183594 344.675781 46.707031 337.648438 49.019531 C 330.972656 51.214844 327.511719 59.910156 329.542969 65.882812 C 331.414062 71.390625 338.128906 74.464844 347.355469 70.632812 Z M 347.355469 70.632812 " fill-opacity="1" fill-rule="evenodd"/><path fill="#8ac243" d="M 356.074219 60.039062 C 356.246094 58.527344 356.066406 57.039062 355.492188 55.679688 C 353.15625 50.183594 344.675781 46.707031 337.648438 49.019531 C 332.351562 50.761719 329.082031 56.59375 328.96875 61.910156 C 332 67.046875 339.675781 69.101562 347.148438 66.472656 C 350.972656 65.125 354.070312 62.789062 356.074219 60.039062 Z M 356.074219 60.039062 " fill-opacity="1" fill-rule="evenodd"/><path fill="#e9fba5" d="M 355.492188 55.679688 C 353.15625 50.183594 344.675781 46.707031 337.648438 49.019531 C 335.019531 49.882812 332.894531 51.753906 331.402344 54.066406 C 338.644531 49.957031 347.523438 48.753906 355.492188 55.679688 Z M 355.492188 55.679688 " fill-opacity="1" fill-rule="evenodd"/><path fill="#073e14" d="M 346.808594 69.316406 C 347.515625 69.023438 348.167969 68.691406 348.765625 68.328125 C 349.265625 68.027344 349.742188 67.691406 350.195312 67.332031 C 350.566406 65.988281 350.722656 64.464844 350.644531 62.84375 C 350.558594 61.09375 350.199219 59.234375 349.542969 57.367188 C 348.976562 55.753906 348.238281 54.28125 347.378906 52.992188 C 346.582031 51.789062 345.683594 50.753906 344.730469 49.914062 C 343.664062 49.742188 342.566406 49.675781 341.476562 49.738281 C 340.332031 49.804688 339.191406 50.007812 338.085938 50.371094 C 337.316406 50.625 336.589844 50.984375 335.914062 51.425781 C 335.289062 51.835938 334.714844 52.3125 334.1875 52.84375 C 333.859375 54.171875 333.734375 55.667969 333.832031 57.257812 C 333.933594 58.941406 334.289062 60.726562 334.917969 62.515625 C 335.597656 64.453125 336.523438 66.183594 337.601562 67.636719 C 338.59375 68.972656 339.707031 70.070312 340.867188 70.859375 C 341.707031 70.785156 342.589844 70.640625 343.507812 70.414062 C 344.550781 70.160156 345.652344 69.796875 346.8125 69.316406 Z M 350.234375 70.757812 C 349.488281 71.210938 348.710938 71.609375 347.898438 71.945312 C 346.625 72.476562 345.378906 72.882812 344.171875 73.179688 C 342.914062 73.488281 341.710938 73.667969 340.570312 73.730469 C 340.292969 73.746094 340.003906 73.679688 339.75 73.519531 C 338.148438 72.527344 336.628906 71.097656 335.320312 69.332031 C 334.082031 67.65625 333.015625 65.667969 332.238281 63.453125 C 331.519531 61.410156 331.113281 59.367188 330.996094 57.425781 C 330.871094 55.382812 331.058594 53.449219 331.539062 51.742188 C 331.597656 51.53125 331.707031 51.332031 331.867188 51.160156 C 332.613281 50.355469 333.445312 49.640625 334.355469 49.046875 C 335.230469 48.472656 336.183594 48.003906 337.207031 47.667969 C 338.542969 47.226562 339.929688 46.980469 341.320312 46.902344 C 342.742188 46.820312 344.167969 46.917969 345.546875 47.171875 C 345.804688 47.207031 346.054688 47.308594 346.265625 47.488281 C 347.527344 48.535156 348.714844 49.863281 349.746094 51.421875 C 350.726562 52.894531 351.574219 54.582031 352.222656 56.429688 C 352.96875 58.558594 353.378906 60.691406 353.476562 62.710938 C 353.582031 64.839844 353.34375 66.84375 352.789062 68.582031 L 352.789062 68.578125 C 352.710938 68.828125 352.5625 69.058594 352.351562 69.238281 C 351.710938 69.777344 351.003906 70.289062 350.234375 70.757812 Z M 350.234375 70.757812 " fill-opacity="1" fill-rule="nonzero"/><path fill="#4a8d0c" d="M 347.355469 70.632812 C 348.894531 69.992188 350.261719 69.144531 351.433594 68.152344 C 352.421875 65.039062 352.3125 60.976562 350.882812 56.898438 C 349.644531 53.371094 347.636719 50.472656 345.363281 48.582031 C 342.835938 48.109375 340.148438 48.199219 337.648438 49.019531 C 335.808594 49.625 334.210938 50.726562 332.90625 52.125 C 332.050781 55.183594 332.207031 59.078125 333.578125 62.984375 C 335.066406 67.21875 337.65625 70.546875 340.492188 72.3125 C 342.570312 72.195312 344.871094 71.664062 347.355469 70.628906 Z M 347.355469 70.632812 " fill-opacity="1" fill-rule="evenodd"/><path fill="#8ac243" d="M 352.082031 63.933594 C 352.113281 61.722656 351.730469 59.3125 350.882812 56.898438 C 349.644531 53.371094 347.636719 50.472656 345.363281 48.582031 C 342.835938 48.109375 340.148438 48.199219 337.648438 49.019531 C 335.808594 49.625 334.210938 50.726562 332.90625 52.128906 C 332.050781 55.183594 332.207031 59.078125 333.578125 62.988281 C 334.058594 64.355469 334.65625 65.632812 335.339844 66.792969 C 338.785156 67.945312 343 67.929688 347.148438 66.472656 C 348.96875 65.832031 350.628906 64.964844 352.082031 63.933594 Z M 352.082031 63.933594 " fill-opacity="1" fill-rule="evenodd"/><path fill="#e9fba5" d="M 342.003906 50.320312 C 344.707031 50.019531 347.28125 50.851562 347.746094 52.175781 C 348.210938 53.503906 346.394531 54.820312 343.6875 55.121094 C 340.984375 55.425781 338.410156 54.59375 337.945312 53.265625 C 337.480469 51.941406 339.296875 50.621094 342.003906 50.320312 Z M 342.003906 50.320312 " fill-opacity="1" fill-rule="evenodd"/><path fill="#e9fba5" d="M 348.054688 51.476562 C 347.230469 50.351562 346.320312 49.378906 345.363281 48.582031 C 342.835938 48.109375 340.148438 48.199219 337.648438 49.019531 C 335.808594 49.625 334.210938 50.726562 332.90625 52.128906 C 332.792969 52.542969 332.695312 52.972656 332.617188 53.414062 C 337.371094 50.996094 342.742188 49.890625 348.054688 51.476562 Z M 348.054688 51.476562 " fill-opacity="1" fill-rule="evenodd"/><path fill="#073e14" d="M 348.230469 71.804688 L 347.949219 71.921875 L 347.898438 71.945312 C 347.429688 72.140625 346.941406 72.328125 346.441406 72.503906 C 345.929688 72.679688 345.441406 72.835938 344.976562 72.96875 C 344.445312 73.113281 343.855469 72.949219 343.488281 72.496094 C 342.589844 71.382812 341.605469 69.769531 340.632812 67.8125 C 339.71875 65.972656 338.804688 63.800781 337.972656 61.4375 C 337.140625 59.058594 336.496094 56.785156 336.058594 54.777344 C 335.609375 52.710938 335.371094 50.882812 335.367188 49.460938 C 335.320312 48.867188 335.648438 48.289062 336.226562 48.039062 C 336.378906 47.972656 336.539062 47.910156 336.703125 47.847656 L 336.710938 47.847656 C 336.839844 47.796875 336.976562 47.75 337.128906 47.695312 L 337.207031 47.667969 C 337.632812 47.527344 338.0625 47.40625 338.488281 47.308594 C 338.921875 47.203125 339.363281 47.121094 339.800781 47.054688 L 339.800781 47.058594 C 340.292969 46.988281 340.800781 47.171875 341.125 47.589844 C 342.003906 48.714844 342.960938 50.3125 343.902344 52.234375 C 344.796875 54.050781 345.683594 56.164062 346.484375 58.449219 C 347.316406 60.8125 347.960938 63.078125 348.394531 65.078125 C 348.847656 67.148438 349.085938 68.980469 349.089844 70.40625 C 349.128906 70.992188 348.796875 71.5625 348.230469 71.804688 Z M 346.222656 69.554688 C 346.144531 68.476562 345.941406 67.160156 345.617188 65.675781 C 345.195312 63.761719 344.585938 61.613281 343.804688 59.382812 C 343.035156 57.195312 342.195312 55.1875 341.355469 53.480469 C 340.683594 52.109375 340.015625 50.9375 339.386719 50.023438 L 339.132812 50.078125 C 338.828125 50.148438 338.53125 50.230469 338.238281 50.324219 C 338.316406 51.398438 338.519531 52.707031 338.835938 54.175781 C 339.253906 56.101562 339.867188 58.261719 340.65625 60.5 C 341.441406 62.738281 342.308594 64.800781 343.179688 66.554688 C 343.851562 67.90625 344.511719 69.058594 345.128906 69.945312 C 345.253906 69.90625 345.382812 69.863281 345.503906 69.820312 C 345.734375 69.738281 345.972656 69.652344 346.222656 69.554688 Z M 346.222656 69.554688 " fill-opacity="1" fill-rule="nonzero"/><path fill="#4a8d0c" d="M 347.355469 70.632812 L 347.675781 70.496094 C 347.683594 67.890625 346.789062 63.59375 345.144531 58.917969 C 343.546875 54.363281 341.617188 50.53125 340.007812 48.464844 C 339.210938 48.582031 338.421875 48.765625 337.648438 49.019531 C 337.355469 49.117188 337.066406 49.226562 336.785156 49.347656 C 336.769531 51.949219 337.664062 56.265625 339.316406 60.96875 C 340.960938 65.65625 342.957031 69.578125 344.59375 71.597656 C 345.484375 71.347656 346.40625 71.027344 347.355469 70.632812 Z M 347.355469 70.632812 " fill-opacity="1" fill-rule="evenodd"/><path fill="#8ac243" d="M 347.222656 66.445312 C 346.804688 64.238281 346.101562 61.640625 345.144531 58.917969 C 343.546875 54.359375 341.617188 50.53125 340.007812 48.460938 C 339.210938 48.582031 338.421875 48.765625 337.648438 49.019531 C 337.355469 49.117188 337.066406 49.226562 336.785156 49.347656 C 336.769531 51.949219 337.664062 56.265625 339.316406 60.96875 C 340.179688 63.429688 341.140625 65.679688 342.09375 67.554688 C 343.753906 67.421875 345.453125 67.066406 347.148438 66.472656 Z M 347.222656 66.445312 " fill-opacity="1" fill-rule="evenodd"/><path fill="#e9fba5" d="M 343.671875 55.125 C 342.894531 53.320312 342.09375 51.722656 341.320312 50.421875 C 339 50.851562 337.519531 52.054688 337.945312 53.265625 C 338.410156 54.589844 340.972656 55.421875 343.671875 55.125 Z M 343.671875 55.125 " fill-opacity="1" fill-rule="evenodd"/><path fill="#e9fba5" d="M 341.535156 50.785156 C 341.007812 49.871094 340.496094 49.085938 340.007812 48.460938 C 339.210938 48.582031 338.421875 48.765625 337.648438 49.019531 C 337.355469 49.117188 337.066406 49.226562 336.785156 49.347656 C 336.78125 50.011719 336.835938 50.789062 336.949219 51.65625 C 338.449219 51.203125 339.980469 50.902344 341.535156 50.785156 Z M 341.535156 50.785156 " fill-opacity="1" fill-rule="evenodd"/><g clip-path="url(#65f6dd1775)"><path fill="#073e14" d="M 330.871094 80.453125 L 335.167969 102.433594 C 336.976562 103.234375 338.730469 103.84375 340.636719 104.269531 C 342.828125 104.757812 345.261719 105.023438 348.253906 105.078125 C 351.246094 105.023438 353.679688 104.757812 355.871094 104.269531 C 357.777344 103.84375 359.53125 103.234375 361.339844 102.433594 L 365.636719 80.453125 C 359.550781 80.148438 353.925781 79.996094 348.253906 79.996094 C 342.582031 79.996094 336.957031 80.148438 330.871094 80.453125 Z M 332.253906 103.828125 L 327.453125 79.285156 L 327.457031 79.285156 C 327.441406 79.210938 327.433594 79.140625 327.429688 79.0625 C 327.386719 78.203125 328.046875 77.46875 328.910156 77.421875 C 335.851562 77.050781 342.078125 76.863281 348.253906 76.863281 C 354.429688 76.863281 360.601562 77.050781 367.507812 77.417969 C 367.609375 77.417969 367.714844 77.429688 367.816406 77.449219 C 368.664062 77.613281 369.21875 78.4375 369.054688 79.285156 L 364.261719 103.773438 C 364.183594 104.269531 363.867188 104.71875 363.378906 104.949219 C 361.144531 105.992188 358.984375 106.773438 356.542969 107.320312 C 354.144531 107.851562 351.5 108.144531 348.277344 108.203125 L 348.230469 108.203125 C 345.003906 108.144531 342.363281 107.851562 339.960938 107.320312 C 337.523438 106.773438 335.363281 105.992188 333.128906 104.949219 C 332.691406 104.742188 332.351562 104.339844 332.253906 103.828125 Z M 332.253906 103.828125 " fill-opacity="1" fill-rule="nonzero"/></g><path fill="#b26634" d="M 328.988281 78.984375 C 330.589844 87.164062 332.191406 95.347656 333.789062 103.527344 C 338.09375 105.535156 342.027344 106.523438 348.253906 106.640625 C 354.484375 106.523438 358.414062 105.535156 362.71875 103.527344 C 364.316406 95.347656 365.917969 87.164062 367.519531 78.984375 C 353.792969 78.246094 342.714844 78.246094 328.988281 78.984375 Z M 328.988281 78.984375 " fill-opacity="1" fill-rule="evenodd"/><path fill="#d68956" d="M 359.808594 104.742188 C 360.78125 104.386719 361.738281 103.984375 362.71875 103.527344 C 364.316406 95.347656 365.917969 87.164062 367.519531 78.984375 C 365.953125 78.902344 364.425781 78.824219 362.925781 78.761719 C 363.222656 86.910156 361.980469 95.792969 359.808594 104.742188 Z M 359.808594 104.742188 " fill-opacity="1" fill-rule="evenodd"/><path fill="#944c1c" d="M 330.515625 80.570312 C 331.945312 87.875 333.375 95.175781 334.800781 102.480469 C 337.921875 103.9375 340.828125 104.792969 344.792969 105.117188 C 346.648438 105.269531 346.023438 104.5625 345.21875 102.996094 C 340.46875 93.769531 343.40625 85.078125 347.183594 80.480469 C 342.765625 80.535156 335.386719 80.308594 330.515625 80.570312 Z M 330.515625 80.570312 " fill-opacity="1" fill-rule="evenodd"/><g clip-path="url(#63fcb2b588)"><path fill="#073e14" d="M 329.914062 80.347656 L 330.960938 85.691406 C 333.144531 86.320312 335.648438 86.832031 338.375 87.195312 C 341.398438 87.59375 344.730469 87.816406 348.253906 87.816406 C 351.777344 87.816406 355.109375 87.597656 358.132812 87.195312 C 360.859375 86.832031 363.363281 86.320312 365.546875 85.691406 L 366.59375 80.347656 C 360.167969 80.027344 354.230469 79.867188 348.253906 79.867188 C 342.273438 79.867188 336.339844 80.027344 329.914062 80.347656 Z M 327.910156 87.300781 L 326.3125 79.113281 C 326.296875 79.039062 326.289062 78.960938 326.285156 78.882812 C 326.238281 77.972656 326.9375 77.199219 327.847656 77.152344 C 335.164062 76.757812 341.734375 76.5625 348.253906 76.5625 C 354.773438 76.5625 361.289062 76.757812 368.574219 77.148438 C 368.679688 77.148438 368.785156 77.15625 368.894531 77.179688 C 369.789062 77.351562 370.371094 78.21875 370.199219 79.117188 L 368.605469 87.246094 C 368.511719 87.84375 368.089844 88.367188 367.472656 88.5625 C 364.933594 89.367188 361.914062 90.019531 358.558594 90.464844 C 355.351562 90.890625 351.871094 91.125 348.253906 91.125 C 344.636719 91.125 341.15625 90.890625 337.949219 90.464844 C 334.597656 90.019531 331.574219 89.367188 329.035156 88.5625 C 328.476562 88.382812 328.03125 87.914062 327.910156 87.300781 Z M 327.910156 87.300781 " fill-opacity="1" fill-rule="nonzero"/></g><path fill="#d1985e" d="M 327.929688 78.796875 L 329.53125 86.984375 C 334.375 88.523438 340.976562 89.46875 348.253906 89.46875 C 355.53125 89.46875 362.132812 88.523438 366.976562 86.984375 L 368.578125 78.796875 C 354.09375 78.019531 342.410156 78.019531 327.929688 78.796875 Z M 327.929688 78.796875 " fill-opacity="1" fill-rule="evenodd"/><path fill="#fac999" d="M 362.652344 88.101562 C 364.207031 87.777344 365.65625 87.402344 366.976562 86.984375 C 367.511719 84.253906 368.042969 81.527344 368.578125 78.796875 C 363.765625 78.539062 349.0625 79.6875 346.761719 83.90625 C 350.988281 84.566406 357.757812 84.96875 362.90625 84.199219 C 362.855469 85.488281 362.769531 86.789062 362.652344 88.101562 Z M 362.652344 88.101562 " fill-opacity="1" fill-rule="evenodd"/><path fill="#ba7734" d="M 331.902344 87.65625 C 335.144531 88.46875 338.960938 89.046875 343.125 89.308594 C 343.417969 87.691406 343.839844 86.175781 344.515625 84.863281 C 338.039062 84.570312 334.277344 84 331.109375 83.179688 Z M 331.902344 87.65625 " fill-opacity="1" fill-rule="evenodd"/><g clip-path="url(#b9c22f74f4)"><path fill="#073e14" d="M 348.253906 73.613281 C 353.949219 73.613281 359.132812 74.015625 362.902344 74.671875 C 367.429688 75.457031 370.230469 76.898438 370.230469 78.796875 C 370.230469 80.699219 367.429688 82.136719 362.902344 82.925781 C 359.132812 83.578125 353.949219 83.984375 348.253906 83.984375 C 342.558594 83.984375 337.375 83.578125 333.605469 82.925781 C 329.078125 82.136719 326.277344 80.699219 326.277344 78.796875 C 326.277344 76.898438 329.078125 75.457031 333.605469 74.671875 C 337.375 74.015625 342.558594 73.613281 348.253906 73.613281 Z M 362.347656 77.925781 C 358.761719 77.304688 353.78125 76.917969 348.253906 76.917969 C 342.726562 76.917969 337.746094 77.304688 334.160156 77.925781 C 331.332031 78.417969 329.582031 78.75 329.582031 78.796875 C 329.582031 78.847656 331.332031 79.179688 334.160156 79.667969 C 337.746094 80.292969 342.726562 80.679688 348.253906 80.679688 C 353.78125 80.679688 358.761719 80.292969 362.347656 79.667969 C 365.175781 79.179688 366.925781 78.847656 366.925781 78.796875 C 366.925781 78.75 365.175781 78.417969 362.347656 77.925781 Z M 362.347656 77.925781 " fill-opacity="1" fill-rule="nonzero"/></g><path fill="#ba7734" d="M 348.253906 75.265625 C 359.476562 75.265625 368.578125 76.847656 368.578125 78.796875 C 368.578125 80.75 359.476562 82.332031 348.253906 82.332031 C 337.03125 82.332031 327.929688 80.75 327.929688 78.796875 C 327.929688 76.847656 337.03125 75.265625 348.253906 75.265625 Z M 348.253906 75.265625 " fill-opacity="1" fill-rule="evenodd"/><path fill="#073e14" d="M 366.40625 80.703125 C 362.578125 81.742188 355.878906 82.429688 348.253906 82.429688 C 340.628906 82.429688 333.929688 81.742188 330.101562 80.703125 C 333.929688 79.660156 340.628906 78.972656 348.253906 78.972656 C 355.878906 78.972656 362.578125 79.660156 366.40625 80.703125 Z M 366.40625 80.703125 " fill-opacity="1" fill-rule="evenodd"/><path fill="#073e14" d="M 341.546875 44.953125 C 341.6875 44.695312 342.011719 44.601562 342.269531 44.742188 C 342.527344 44.882812 342.621094 45.210938 342.480469 45.46875 L 341.183594 47.824219 C 341.042969 48.082031 340.71875 48.175781 340.460938 48.035156 C 340.363281 47.980469 340.289062 47.902344 340.242188 47.8125 L 338.773438 45.34375 C 338.621094 45.09375 338.703125 44.765625 338.957031 44.613281 C 339.207031 44.464844 339.535156 44.546875 339.6875 44.796875 L 340.699219 46.496094 Z M 341.546875 44.953125 " fill-opacity="1" fill-rule="nonzero"/><path fill="#073e14" d="M 354.472656 79.121094 L 354.484375 79.121094 C 354.484375 79.121094 354.589844 79.125 354.589844 79.125 L 354.59375 79.125 C 357.519531 79.195312 360.167969 78.261719 362.089844 76.765625 C 363.933594 75.339844 365.09375 73.40625 365.160156 71.382812 L 365.160156 71.367188 C 365.160156 71.367188 365.160156 71.332031 365.160156 71.332031 C 365.214844 69.019531 363.957031 66.519531 361.945312 64.515625 C 359.953125 62.53125 357.246094 61.066406 354.347656 60.75 L 354.308594 60.746094 L 354.253906 60.738281 L 354.234375 60.738281 C 351.570312 60.484375 348.929688 61.609375 346.878906 63.410156 C 344.800781 65.234375 343.347656 67.714844 343.082031 70.136719 L 343.078125 70.175781 L 343.074219 70.222656 L 343.070312 70.261719 C 343.058594 70.398438 343.046875 70.535156 343.042969 70.667969 C 342.980469 72.601562 343.75 74.488281 345.328125 75.972656 C 347 77.546875 349.574219 78.691406 353.042969 79.03125 L 353.046875 79.03125 C 353.511719 79.074219 353.988281 79.105469 354.472656 79.121094 Z M 354.511719 81.964844 L 354.40625 81.960938 L 354.382812 81.960938 C 353.824219 81.941406 353.285156 81.910156 352.769531 81.859375 C 348.628906 81.449219 345.488281 80.023438 343.382812 78.042969 C 341.1875 75.976562 340.121094 73.324219 340.210938 70.578125 C 340.214844 70.382812 340.226562 70.1875 340.246094 69.992188 L 340.25 69.933594 L 340.257812 69.882812 L 340.261719 69.835938 C 340.601562 66.703125 342.421875 63.546875 345.011719 61.273438 C 347.605469 59 351.003906 57.578125 354.496094 57.90625 L 354.546875 57.910156 L 354.601562 57.917969 L 354.648438 57.921875 C 358.222656 58.3125 361.53125 60.09375 363.949219 62.5 C 366.488281 65.03125 368.074219 68.285156 368 71.402344 L 368 71.433594 C 368 71.433594 367.996094 71.472656 367.996094 71.472656 C 367.902344 74.371094 366.324219 77.078125 363.828125 79.015625 C 361.417969 80.882812 358.136719 82.050781 354.527344 81.964844 Z M 354.527344 81.964844 L 354.519531 81.964844 Z M 354.527344 81.964844 " fill-opacity="1" fill-rule="nonzero"/><path fill="#4a8d0c" d="M 354.429688 80.542969 C 361.058594 80.757812 366.460938 76.34375 366.582031 71.367188 C 366.707031 66.023438 361.082031 60.054688 354.496094 59.335938 C 348.246094 58.65625 342.214844 64.460938 341.664062 70.078125 C 341.15625 75.261719 345.492188 80.25 354.429688 80.542969 Z M 354.429688 80.542969 " fill-opacity="1" fill-rule="evenodd"/><path fill="#8ac243" d="M 365.445312 75.132812 C 366.144531 73.96875 366.550781 72.6875 366.582031 71.367188 C 366.707031 66.023438 361.082031 60.050781 354.5 59.335938 C 349.539062 58.796875 344.71875 62.335938 342.664062 66.628906 C 343.238281 71.9375 348.734375 76.453125 355.796875 77.074219 C 359.410156 77.394531 362.800781 76.636719 365.445312 75.132812 Z M 365.445312 75.132812 " fill-opacity="1" fill-rule="evenodd"/><path fill="#e9fba5" d="M 366.582031 71.367188 C 366.707031 66.023438 361.082031 60.054688 354.496094 59.335938 C 352.039062 59.066406 349.613281 59.804688 347.542969 61.136719 C 354.964844 60.46875 362.644531 62.773438 366.582031 71.367188 Z M 366.582031 71.367188 " fill-opacity="1" fill-rule="evenodd"/><path fill="#073e14" d="M 354.472656 79.121094 C 355.117188 79.144531 355.765625 79.113281 356.410156 79.035156 C 356.917969 78.972656 357.40625 78.882812 357.878906 78.769531 C 358.648438 77.835938 359.316406 76.679688 359.839844 75.359375 C 360.410156 73.914062 360.804688 72.28125 360.957031 70.53125 C 361.089844 69.003906 361.035156 67.539062 360.816406 66.195312 C 360.617188 64.957031 360.277344 63.804688 359.820312 62.78125 C 359.035156 62.265625 358.191406 61.820312 357.304688 61.476562 C 356.359375 61.113281 355.367188 60.859375 354.347656 60.75 C 353.625 60.671875 352.910156 60.691406 352.214844 60.800781 C 351.589844 60.898438 350.960938 61.066406 350.347656 61.300781 C 349.621094 62.234375 348.984375 63.382812 348.488281 64.6875 C 347.953125 66.085938 347.589844 67.65625 347.441406 69.335938 C 347.28125 71.152344 347.394531 72.894531 347.730469 74.460938 C 348.039062 75.882812 348.527344 77.15625 349.15625 78.203125 C 349.84375 78.445312 350.589844 78.644531 351.394531 78.792969 C 352.347656 78.972656 353.375 79.085938 354.472656 79.121094 Z M 356.746094 81.863281 C 355.996094 81.953125 355.203125 81.988281 354.382812 81.960938 C 353.125 81.921875 351.953125 81.792969 350.871094 81.589844 C 349.726562 81.375 348.667969 81.070312 347.703125 80.695312 C 347.441406 80.59375 347.203125 80.414062 347.035156 80.164062 C 346.085938 78.742188 345.371094 77 344.953125 75.0625 C 344.554688 73.222656 344.421875 71.191406 344.605469 69.089844 C 344.777344 67.148438 345.203125 65.316406 345.828125 63.675781 C 346.46875 61.996094 347.324219 60.507812 348.332031 59.289062 C 348.480469 59.078125 348.6875 58.90625 348.945312 58.800781 C 349.847656 58.425781 350.800781 58.148438 351.78125 57.996094 C 352.726562 57.847656 353.6875 57.816406 354.648438 57.921875 C 355.914062 58.058594 357.152344 58.375 358.328125 58.828125 C 359.507812 59.285156 360.628906 59.890625 361.660156 60.601562 C 361.894531 60.738281 362.097656 60.945312 362.226562 61.210938 C 362.871094 62.539062 363.351562 64.078125 363.621094 65.75 C 363.878906 67.339844 363.945312 69.035156 363.792969 70.777344 C 363.613281 72.808594 363.15625 74.714844 362.488281 76.40625 C 361.78125 78.191406 360.835938 79.75 359.722656 80.984375 C 359.550781 81.175781 359.320312 81.324219 359.050781 81.402344 C 358.304688 81.613281 357.535156 81.769531 356.746094 81.863281 Z M 356.746094 81.863281 " fill-opacity="1" fill-rule="nonzero"/><path fill="#4a8d0c" d="M 354.429688 80.542969 C 355.917969 80.589844 357.347656 80.40625 358.667969 80.03125 C 360.621094 77.859375 362.035156 74.507812 362.375 70.65625 C 362.667969 67.320312 362.105469 64.214844 360.949219 61.832031 C 359.0625 60.511719 356.839844 59.589844 354.496094 59.335938 C 352.773438 59.148438 351.066406 59.453125 349.488281 60.113281 C 347.660156 62.285156 346.347656 65.519531 346.023438 69.210938 C 345.671875 73.210938 346.550781 76.882812 348.214844 79.371094 C 349.949219 80.042969 352.019531 80.464844 354.429688 80.542969 Z M 354.429688 80.542969 " fill-opacity="1" fill-rule="evenodd"/><path fill="#8ac243" d="M 360.753906 76.832031 C 361.597656 75.042969 362.171875 72.9375 362.375 70.65625 C 362.667969 67.320312 362.105469 64.214844 360.949219 61.835938 C 359.0625 60.511719 356.839844 59.589844 354.496094 59.335938 C 352.773438 59.148438 351.066406 59.453125 349.488281 60.113281 C 347.660156 62.285156 346.347656 65.519531 346.023438 69.210938 C 345.910156 70.507812 345.925781 71.769531 346.054688 72.964844 C 348.433594 75.183594 351.871094 76.730469 355.792969 77.074219 C 357.515625 77.226562 359.1875 77.132812 360.753906 76.832031 Z M 360.753906 76.832031 " fill-opacity="1" fill-rule="evenodd"/><path fill="#e9fba5" d="M 357.566406 62.007812 C 359.882812 62.765625 361.671875 64.394531 361.5625 65.648438 C 361.453125 66.898438 359.484375 67.300781 357.167969 66.546875 C 354.851562 65.789062 353.0625 64.160156 353.171875 62.90625 C 353.28125 61.652344 355.25 61.25 357.566406 62.007812 Z M 357.566406 62.007812 " fill-opacity="1" fill-rule="evenodd"/><path fill="#e9fba5" d="M 362.074219 65.1875 C 361.816406 63.964844 361.433594 62.835938 360.949219 61.832031 C 359.0625 60.511719 356.839844 59.589844 354.496094 59.335938 C 352.773438 59.148438 351.066406 59.453125 349.488281 60.113281 C 349.238281 60.40625 349 60.722656 348.773438 61.054688 C 353.542969 60.839844 358.328125 61.929688 362.074219 65.1875 Z M 362.074219 65.1875 " fill-opacity="1" fill-rule="evenodd"/><path fill="#073e14" d="M 354.710938 81.96875 L 354.429688 81.960938 L 354.382812 81.960938 C 353.910156 81.945312 353.441406 81.917969 352.980469 81.875 C 352.457031 81.828125 351.996094 81.773438 351.605469 81.714844 L 351.605469 81.710938 C 351.0625 81.628906 350.589844 81.230469 350.445312 80.664062 C 350.121094 79.417969 349.910156 77.730469 349.84375 75.765625 C 349.777344 73.890625 349.832031 71.777344 350.027344 69.566406 C 350.222656 67.335938 350.539062 65.238281 350.929688 63.414062 C 351.34375 61.488281 351.84375 59.859375 352.386719 58.6875 C 352.617188 58.191406 353.121094 57.851562 353.703125 57.863281 C 353.878906 57.867188 354.019531 57.875 354.132812 57.878906 L 354.171875 57.882812 C 354.304688 57.890625 354.445312 57.902344 354.597656 57.917969 L 354.648438 57.921875 C 355.0625 57.96875 355.460938 58.027344 355.839844 58.101562 C 356.238281 58.179688 356.632812 58.277344 357.019531 58.386719 L 357.019531 58.390625 C 357.496094 58.527344 357.886719 58.910156 358.007812 59.425781 C 358.308594 60.679688 358.5 62.34375 358.558594 64.265625 C 358.617188 66.097656 358.558594 68.15625 358.371094 70.296875 C 358.175781 72.519531 357.863281 74.609375 357.476562 76.425781 C 357.066406 78.328125 356.574219 79.945312 356.039062 81.121094 C 355.8125 81.628906 355.300781 81.980469 354.710938 81.96875 Z M 353.800781 79.089844 C 354.117188 78.207031 354.421875 77.101562 354.695312 75.835938 C 355.054688 74.144531 355.347656 72.175781 355.535156 70.054688 C 355.71875 67.96875 355.777344 66.023438 355.722656 64.339844 C 355.683594 63.03125 355.578125 61.871094 355.417969 60.921875 L 355.296875 60.894531 C 355.058594 60.847656 354.824219 60.808594 354.601562 60.777344 C 354.28125 61.660156 353.980469 62.753906 353.710938 64.003906 C 353.347656 65.699219 353.050781 67.679688 352.863281 69.8125 C 352.675781 71.953125 352.621094 73.949219 352.679688 75.664062 C 352.722656 76.957031 352.832031 78.09375 352.996094 79.023438 L 353.226562 79.046875 C 353.410156 79.066406 353.605469 79.078125 353.800781 79.089844 Z M 353.800781 79.089844 " fill-opacity="1" fill-rule="nonzero"/><path fill="#4a8d0c" d="M 354.429688 80.542969 L 354.738281 80.550781 C 355.707031 78.429688 356.5625 74.597656 356.953125 70.175781 C 357.332031 65.871094 357.175781 62.039062 356.628906 59.753906 C 355.933594 59.558594 355.222656 59.414062 354.496094 59.335938 C 354.222656 59.304688 353.949219 59.289062 353.675781 59.285156 C 352.699219 61.398438 351.835938 65.246094 351.445312 69.691406 C 351.054688 74.121094 351.230469 78.054688 351.816406 80.308594 C 352.640625 80.433594 353.507812 80.511719 354.429688 80.542969 Z M 354.429688 80.542969 " fill-opacity="1" fill-rule="evenodd"/><path fill="#8ac243" d="M 355.867188 77.082031 C 356.339844 75.128906 356.726562 72.75 356.953125 70.175781 C 357.332031 65.871094 357.175781 62.039062 356.628906 59.753906 C 355.933594 59.554688 355.222656 59.414062 354.496094 59.335938 C 354.222656 59.304688 353.949219 59.289062 353.675781 59.285156 C 352.699219 61.394531 351.835938 65.246094 351.445312 69.691406 C 351.238281 72.015625 351.191406 74.207031 351.277344 76.089844 C 352.675781 76.59375 354.195312 76.933594 355.796875 77.074219 Z M 355.867188 77.082031 " fill-opacity="1" fill-rule="evenodd"/><path fill="#e9fba5" d="M 357.152344 66.539062 C 357.1875 64.785156 357.125 63.183594 356.976562 61.835938 C 354.925781 61.328125 353.273438 61.761719 353.171875 62.90625 C 353.0625 64.15625 354.84375 65.78125 357.152344 66.539062 Z M 357.152344 66.539062 " fill-opacity="1" fill-rule="evenodd"/><path fill="#e9fba5" d="M 357.015625 62.214844 C 356.925781 61.273438 356.792969 60.445312 356.628906 59.753906 C 355.933594 59.554688 355.222656 59.414062 354.496094 59.335938 C 354.222656 59.304688 353.949219 59.289062 353.675781 59.285156 C 353.425781 59.824219 353.183594 60.476562 352.957031 61.226562 C 354.34375 61.410156 355.707031 61.734375 357.015625 62.214844 Z M 357.015625 62.214844 " fill-opacity="1" fill-rule="evenodd"/><path fill="#073e14" d="M 343.804688 80.269531 L 343.929688 80.242188 L 343.929688 80.238281 C 346.042969 79.746094 347.769531 78.613281 348.875 77.230469 C 349.90625 75.9375 350.386719 74.445312 350.09375 73.097656 L 350.089844 73.097656 C 350.089844 73.097656 350.078125 73.042969 350.078125 73.042969 C 349.707031 71.464844 348.371094 69.980469 346.578125 68.960938 C 344.78125 67.9375 342.558594 67.40625 340.402344 67.714844 C 340.402344 67.714844 340.339844 67.726562 340.339844 67.726562 C 338.386719 68.027344 336.695312 69.292969 335.546875 70.921875 C 334.390625 72.5625 333.792969 74.535156 334.039062 76.242188 L 334.046875 76.300781 L 334.054688 76.378906 C 334.070312 76.449219 334.082031 76.515625 334.097656 76.582031 C 334.382812 77.890625 335.242188 79.023438 336.601562 79.746094 C 338.078125 80.539062 340.148438 80.863281 342.738281 80.464844 L 342.785156 80.457031 C 343.160156 80.398438 343.5 80.335938 343.804688 80.269531 Z M 344.5625 83.007812 L 344.429688 83.039062 C 344.429688 83.039062 344.421875 83.039062 344.421875 83.039062 C 343.972656 83.140625 343.570312 83.21875 343.21875 83.273438 L 343.171875 83.28125 C 339.941406 83.777344 337.265625 83.320312 335.265625 82.253906 C 333.144531 81.117188 331.792969 79.304688 331.328125 77.195312 C 331.300781 77.074219 331.277344 76.953125 331.257812 76.835938 C 331.246094 76.792969 331.238281 76.753906 331.234375 76.710938 L 331.222656 76.652344 L 331.226562 76.652344 L 331.226562 76.648438 C 330.875 74.21875 331.664062 71.492188 333.21875 69.285156 C 334.785156 67.070312 337.140625 65.339844 339.914062 64.910156 C 339.914062 64.910156 339.921875 64.910156 339.921875 64.910156 L 339.992188 64.902344 L 339.996094 64.902344 C 342.800781 64.496094 345.667969 65.175781 347.980469 66.488281 C 350.433594 67.886719 352.292969 70.027344 352.84375 72.398438 C 352.84375 72.398438 352.84375 72.402344 352.84375 72.402344 L 352.859375 72.460938 L 352.855469 72.460938 C 352.855469 72.460938 352.859375 72.472656 352.859375 72.472656 C 353.347656 74.699219 352.652344 77.054688 351.097656 79 C 349.617188 80.859375 347.335938 82.367188 344.574219 83.011719 L 344.574219 83.007812 C 344.574219 83.007812 344.5625 83.011719 344.5625 83.011719 Z M 344.5625 83.007812 " fill-opacity="1" fill-rule="nonzero"/><path fill="#4a8d0c" d="M 344.117188 81.652344 C 349.101562 80.554688 352.304688 76.339844 351.460938 72.71875 C 350.554688 68.832031 345.242188 65.582031 340.199219 66.308594 C 335.410156 67 332 72.339844 332.640625 76.507812 C 333.234375 80.347656 337.398438 83.136719 344.117188 81.652344 Z M 344.117188 81.652344 " fill-opacity="1" fill-rule="evenodd"/><path fill="#8ac243" d="M 351.320312 75.65625 C 351.621094 74.683594 351.683594 73.679688 351.460938 72.71875 C 350.554688 68.832031 345.238281 65.582031 340.199219 66.308594 C 336.398438 66.855469 333.46875 70.332031 332.738281 73.820312 C 334.160156 77.554688 339.105469 79.773438 344.488281 78.886719 C 347.242188 78.433594 349.625 77.246094 351.320312 75.65625 Z M 351.320312 75.65625 " fill-opacity="1" fill-rule="evenodd"/><path fill="#e9fba5" d="M 351.460938 72.71875 C 350.554688 68.832031 345.238281 65.582031 340.199219 66.308594 C 338.3125 66.582031 336.644531 67.570312 335.351562 68.929688 C 340.757812 67.039062 346.917969 67.25 351.460938 72.71875 Z M 351.460938 72.71875 " fill-opacity="1" fill-rule="evenodd"/><path fill="#073e14" d="M 343.8125 80.261719 C 344.300781 80.15625 344.761719 80.015625 345.199219 79.847656 C 345.519531 79.726562 345.824219 79.589844 346.113281 79.445312 C 346.472656 78.675781 346.730469 77.789062 346.859375 76.820312 C 347.011719 75.703125 346.996094 74.484375 346.789062 73.226562 C 346.609375 72.140625 346.304688 71.128906 345.902344 70.222656 C 345.546875 69.425781 345.117188 68.714844 344.640625 68.109375 C 344.003906 67.90625 343.34375 67.761719 342.667969 67.6875 C 341.917969 67.601562 341.152344 67.609375 340.398438 67.714844 C 339.882812 67.792969 339.378906 67.9375 338.894531 68.140625 C 338.863281 68.152344 338.832031 68.164062 338.796875 68.175781 C 338.433594 68.339844 338.078125 68.535156 337.734375 68.761719 C 337.398438 69.53125 337.160156 70.414062 337.042969 71.371094 C 336.914062 72.457031 336.929688 73.628906 337.128906 74.828125 C 337.34375 76.132812 337.742188 77.328125 338.265625 78.359375 C 338.71875 79.246094 339.265625 80.011719 339.871094 80.609375 C 340.382812 80.644531 340.925781 80.644531 341.5 80.605469 C 342.210938 80.558594 342.984375 80.445312 343.808594 80.261719 Z M 346.210938 82.507812 C 345.636719 82.726562 345.039062 82.910156 344.421875 83.046875 C 343.476562 83.253906 342.5625 83.386719 341.6875 83.445312 C 340.777344 83.503906 339.914062 83.488281 339.109375 83.398438 L 339.109375 83.394531 C 338.835938 83.367188 338.5625 83.253906 338.335938 83.058594 C 337.335938 82.1875 336.445312 81.023438 335.742188 79.652344 C 335.085938 78.359375 334.589844 76.878906 334.328125 75.28125 C 334.085938 73.804688 334.058594 72.363281 334.21875 71.035156 C 334.390625 69.613281 334.777344 68.304688 335.335938 67.183594 L 335.335938 67.1875 C 335.433594 66.988281 335.578125 66.8125 335.769531 66.671875 C 336.355469 66.242188 336.996094 65.867188 337.675781 65.570312 C 337.714844 65.550781 337.753906 65.53125 337.796875 65.511719 C 338.484375 65.222656 339.222656 65.011719 339.996094 64.898438 C 340.992188 64.757812 341.996094 64.75 342.980469 64.859375 C 344 64.972656 345.003906 65.214844 345.957031 65.558594 C 346.175781 65.636719 346.378906 65.773438 346.542969 65.960938 C 347.300781 66.832031 347.964844 67.882812 348.492188 69.066406 C 348.996094 70.191406 349.375 71.441406 349.59375 72.773438 C 349.84375 74.308594 349.859375 75.8125 349.671875 77.199219 C 349.472656 78.675781 349.046875 80.027344 348.433594 81.160156 L 348.429688 81.160156 C 348.308594 81.386719 348.125 81.582031 347.882812 81.71875 C 347.347656 82.023438 346.789062 82.289062 346.210938 82.511719 Z M 346.210938 82.507812 " fill-opacity="1" fill-rule="nonzero"/><path fill="#4a8d0c" d="M 344.117188 81.652344 C 345.238281 81.40625 346.269531 81 347.183594 80.480469 C 348.234375 78.542969 348.660156 75.851562 348.191406 73 C 347.785156 70.535156 346.785156 68.394531 345.472656 66.894531 C 343.820312 66.292969 341.992188 66.050781 340.199219 66.308594 C 338.878906 66.5 337.664062 67.042969 336.609375 67.820312 C 335.652344 69.738281 335.277344 72.324219 335.726562 75.054688 C 336.214844 78.011719 337.558594 80.5 339.265625 81.984375 C 340.683594 82.144531 342.308594 82.054688 344.117188 81.65625 Z M 344.117188 81.652344 " fill-opacity="1" fill-rule="evenodd"/><path fill="#8ac243" d="M 348.140625 77.773438 C 348.433594 76.320312 348.46875 74.6875 348.191406 73 C 347.785156 70.535156 346.78125 68.394531 345.472656 66.894531 C 343.820312 66.292969 341.992188 66.050781 340.199219 66.308594 C 338.878906 66.5 337.664062 67.042969 336.609375 67.820312 C 335.652344 69.738281 335.277344 72.324219 335.726562 75.054688 C 335.886719 76.011719 336.132812 76.921875 336.453125 77.761719 C 338.644531 78.914062 341.5 79.378906 344.488281 78.886719 C 345.800781 78.671875 347.027344 78.289062 348.140625 77.773438 Z M 348.140625 77.773438 " fill-opacity="1" fill-rule="evenodd"/><path fill="#e9fba5" d="M 342.988281 67.660156 C 344.855469 67.765625 346.492188 68.605469 346.648438 69.53125 C 346.800781 70.460938 345.40625 71.125 343.539062 71.015625 C 341.671875 70.90625 340.03125 70.070312 339.878906 69.140625 C 339.726562 68.214844 341.117188 67.550781 342.988281 67.660156 Z M 342.988281 67.660156 " fill-opacity="1" fill-rule="evenodd"/><path fill="#e9fba5" d="M 346.941406 69.105469 C 346.519531 68.269531 346.023438 67.527344 345.472656 66.894531 C 343.820312 66.296875 341.992188 66.050781 340.199219 66.308594 C 338.878906 66.5 337.664062 67.042969 336.609375 67.820312 C 336.476562 68.078125 336.359375 68.351562 336.25 68.636719 C 339.765625 67.578125 343.539062 67.457031 346.941406 69.105469 Z M 346.941406 69.105469 " fill-opacity="1" fill-rule="evenodd"/><path fill="#073e14" d="M 344.667969 82.984375 L 344.433594 83.039062 L 344.433594 83.035156 C 344.433594 83.035156 344.421875 83.039062 344.421875 83.039062 C 344.042969 83.125 343.675781 83.195312 343.324219 83.25 C 342.960938 83.308594 342.609375 83.355469 342.273438 83.390625 C 341.730469 83.445312 341.179688 83.183594 340.894531 82.679688 C 340.402344 81.808594 339.914062 80.597656 339.492188 79.171875 C 339.09375 77.839844 338.734375 76.28125 338.460938 74.601562 C 338.183594 72.933594 338.027344 71.339844 337.976562 69.933594 C 337.921875 68.46875 337.988281 67.191406 338.164062 66.234375 C 338.242188 65.667969 338.65625 65.179688 339.246094 65.042969 C 339.332031 65.023438 339.460938 64.996094 339.621094 64.964844 C 339.769531 64.9375 339.894531 64.914062 339.992188 64.902344 L 339.996094 64.902344 C 340.304688 64.855469 340.621094 64.824219 340.941406 64.804688 C 341.214844 64.789062 341.503906 64.78125 341.800781 64.789062 C 342.328125 64.765625 342.851562 65.039062 343.117188 65.535156 C 343.585938 66.40625 344.050781 67.597656 344.460938 69 C 344.847656 70.3125 345.191406 71.828125 345.460938 73.453125 C 345.734375 75.113281 345.890625 76.699219 345.945312 78.101562 C 346 79.582031 345.933594 80.867188 345.75 81.835938 C 345.660156 82.386719 345.246094 82.855469 344.667969 82.984375 Z M 343.074219 80.414062 C 343.125 79.78125 343.140625 79.03125 343.109375 78.203125 C 343.0625 76.925781 342.914062 75.460938 342.65625 73.910156 C 342.410156 72.410156 342.09375 71.011719 341.738281 69.800781 C 341.496094 68.980469 341.242188 68.253906 340.984375 67.652344 L 340.84375 67.664062 C 340.792969 68.289062 340.78125 69.023438 340.8125 69.832031 C 340.855469 71.113281 341.003906 72.585938 341.261719 74.144531 C 341.515625 75.683594 341.847656 77.117188 342.214844 78.359375 C 342.453125 79.15625 342.703125 79.855469 342.953125 80.433594 Z M 343.074219 80.414062 " fill-opacity="1" fill-rule="nonzero"/><path fill="#4a8d0c" d="M 344.117188 81.652344 L 344.351562 81.601562 C 344.675781 79.882812 344.597656 76.953125 344.058594 73.679688 C 343.535156 70.496094 342.699219 67.753906 341.863281 66.207031 C 341.308594 66.195312 340.753906 66.226562 340.199219 66.308594 C 339.988281 66.339844 339.78125 66.378906 339.574219 66.425781 C 339.242188 68.136719 339.320312 71.085938 339.859375 74.371094 C 340.398438 77.648438 341.265625 80.460938 342.128906 81.976562 C 342.761719 81.914062 343.425781 81.804688 344.117188 81.652344 Z M 344.117188 81.652344 " fill-opacity="1" fill-rule="evenodd"/><path fill="#8ac243" d="M 344.542969 78.878906 C 344.53125 77.375 344.371094 75.585938 344.058594 73.679688 C 343.535156 70.496094 342.703125 67.753906 341.863281 66.207031 C 341.308594 66.195312 340.753906 66.226562 340.199219 66.308594 C 339.988281 66.339844 339.78125 66.378906 339.574219 66.425781 C 339.242188 68.136719 339.320312 71.085938 339.859375 74.371094 C 340.144531 76.09375 340.515625 77.6875 340.933594 79.03125 C 342.070312 79.128906 343.269531 79.089844 344.488281 78.886719 Z M 344.542969 78.878906 " fill-opacity="1" fill-rule="evenodd"/><path fill="#e9fba5" d="M 343.527344 71.015625 C 343.222656 69.738281 342.875 68.59375 342.511719 67.648438 C 340.886719 67.667969 339.738281 68.296875 339.878906 69.140625 C 340.03125 70.066406 341.664062 70.902344 343.527344 71.015625 Z M 343.527344 71.015625 " fill-opacity="1" fill-rule="evenodd"/><path fill="#e9fba5" d="M 342.613281 67.914062 C 342.371094 67.25 342.117188 66.675781 341.867188 66.207031 C 341.308594 66.195312 340.753906 66.230469 340.199219 66.308594 C 339.988281 66.339844 339.78125 66.378906 339.574219 66.425781 C 339.492188 66.863281 339.433594 67.382812 339.402344 67.96875 C 340.472656 67.839844 341.546875 67.8125 342.613281 67.914062 Z M 342.613281 67.914062 " fill-opacity="1" fill-rule="evenodd"/><path fill="#073e14" d="M 350.449219 46.65625 C 350.699219 46.5 351.027344 46.578125 351.183594 46.828125 C 351.335938 47.082031 351.257812 47.40625 351.007812 47.5625 L 348.722656 48.976562 C 348.472656 49.132812 348.144531 49.054688 347.992188 48.804688 C 347.941406 48.71875 347.914062 48.628906 347.914062 48.535156 L 347.851562 45.980469 C 347.84375 45.6875 348.074219 45.441406 348.371094 45.433594 C 348.664062 45.429688 348.90625 45.660156 348.914062 45.953125 L 348.953125 47.582031 L 350.453125 46.65625 Z M 350.449219 46.65625 " fill-opacity="1" fill-rule="nonzero"/><path fill="#073e14" d="M 357.621094 52.417969 C 357.910156 52.378906 358.179688 52.585938 358.214844 52.878906 C 358.253906 53.167969 358.046875 53.4375 357.757812 53.472656 L 355.09375 53.832031 C 354.800781 53.867188 354.535156 53.660156 354.496094 53.371094 C 354.484375 53.273438 354.5 53.183594 354.535156 53.097656 L 354.53125 53.097656 C 354.53125 53.097656 355.519531 50.738281 355.519531 50.738281 C 355.632812 50.464844 355.945312 50.335938 356.214844 50.449219 C 356.488281 50.5625 356.617188 50.875 356.503906 51.148438 L 355.875 52.652344 Z M 357.621094 52.417969 " fill-opacity="1" fill-rule="nonzero"/><path fill="#073e14" d="M 331.160156 50.316406 C 330.871094 50.28125 330.664062 50.011719 330.703125 49.722656 C 330.738281 49.429688 331.007812 49.226562 331.296875 49.261719 L 333.042969 49.496094 L 332.414062 47.992188 C 332.300781 47.71875 332.429688 47.40625 332.703125 47.296875 C 332.972656 47.183594 333.285156 47.3125 333.398438 47.582031 L 334.386719 49.941406 L 334.382812 49.941406 C 334.417969 50.027344 334.433594 50.121094 334.421875 50.214844 C 334.382812 50.507812 334.117188 50.710938 333.824219 50.675781 L 331.160156 50.320312 Z M 331.160156 50.316406 " fill-opacity="1" fill-rule="nonzero"/><path fill="#073e14" d="M 327.089844 57.875 C 326.816406 57.980469 326.511719 57.84375 326.402344 57.570312 C 326.296875 57.296875 326.433594 56.988281 326.707031 56.882812 L 328.347656 56.25 L 327.078125 55.234375 C 326.847656 55.050781 326.808594 54.714844 326.992188 54.484375 C 327.175781 54.253906 327.507812 54.214844 327.738281 54.398438 L 329.738281 55.992188 C 329.808594 56.050781 329.867188 56.128906 329.902344 56.21875 C 330.007812 56.492188 329.871094 56.800781 329.597656 56.90625 Z M 327.089844 57.875 " fill-opacity="1" fill-rule="nonzero"/><g clip-path="url(#b4e36a9eff)"><path fill="#073e14" d="M 326.980469 66.320312 C 326.792969 66.546875 326.457031 66.578125 326.230469 66.390625 C 326.003906 66.203125 325.972656 65.867188 326.160156 65.640625 L 327.289062 64.289062 L 325.683594 64.019531 C 325.390625 63.972656 325.195312 63.699219 325.246094 63.40625 C 325.292969 63.117188 325.566406 62.921875 325.855469 62.96875 L 328.378906 63.390625 C 328.46875 63.40625 328.554688 63.445312 328.628906 63.503906 C 328.855469 63.691406 328.886719 64.03125 328.699219 64.253906 L 326.980469 66.324219 Z M 326.980469 66.320312 " fill-opacity="1" fill-rule="nonzero"/></g><path fill="#073e14" d="M 364.261719 59.828125 C 364.503906 59.667969 364.835938 59.730469 365 59.976562 C 365.160156 60.21875 365.097656 60.550781 364.851562 60.714844 L 362.625 62.214844 C 362.378906 62.378906 362.046875 62.3125 361.886719 62.070312 C 361.832031 61.988281 361.800781 61.898438 361.796875 61.808594 L 361.792969 61.808594 L 361.632812 59.253906 C 361.617188 58.960938 361.839844 58.707031 362.132812 58.6875 C 362.425781 58.671875 362.679688 58.894531 362.699219 59.1875 L 362.800781 60.8125 Z M 364.261719 59.828125 " fill-opacity="1" fill-rule="nonzero"/><g clip-path="url(#d403d91c1a)"><path fill="#073e14" d="M 369.382812 70.511719 C 369.597656 70.714844 369.613281 71.050781 369.414062 71.265625 C 369.214844 71.484375 368.878906 71.496094 368.660156 71.296875 L 366.679688 69.480469 C 366.464844 69.277344 366.449219 68.941406 366.648438 68.726562 C 366.71875 68.648438 366.804688 68.601562 366.898438 68.574219 L 369.328125 67.824219 C 369.609375 67.738281 369.90625 67.894531 369.992188 68.175781 C 370.078125 68.457031 369.921875 68.753906 369.640625 68.84375 L 368.085938 69.320312 Z M 366.898438 68.574219 C 367.070312 68.527344 367.261719 68.566406 367.402344 68.695312 Z M 366.898438 68.574219 " fill-opacity="1" fill-rule="nonzero"/></g><path fill="#073e14" d="M 329.398438 74.734375 C 329.125 74.84375 328.816406 74.710938 328.707031 74.4375 C 328.597656 74.164062 328.734375 73.855469 329.003906 73.746094 L 330.640625 73.09375 L 329.355469 72.089844 C 329.125 71.910156 329.085938 71.578125 329.265625 71.34375 C 329.445312 71.113281 329.78125 71.070312 330.011719 71.253906 L 332.023438 72.824219 C 332.097656 72.882812 332.15625 72.957031 332.191406 73.050781 C 332.300781 73.320312 332.167969 73.632812 331.894531 73.738281 Z M 329.398438 74.734375 " fill-opacity="1" fill-rule="nonzero"/><g clip-path="url(#fbe7140464)"><path fill="#a4c71c" d="M 35.035156 107.636719 C 35.035156 108.421875 34.375 109.054688 33.554688 109.054688 C 32.738281 109.054688 32.074219 108.421875 32.074219 107.636719 L 32.074219 80.574219 C 32.074219 79.789062 32.738281 79.15625 33.554688 79.15625 C 34.375 79.15625 35.035156 79.789062 35.035156 80.574219 Z M 35.035156 107.636719 " fill-opacity="1" fill-rule="nonzero"/></g><g clip-path="url(#45edbd2551)"><path fill="#ffca00" d="M 57.171875 63.171875 C 57.171875 60.859375 55.523438 58.972656 53.285156 58.320312 C 54.128906 57.410156 54.683594 56.257812 54.683594 54.960938 C 54.683594 52.113281 52.222656 49.804688 49.179688 49.804688 C 48.542969 49.804688 47.953125 49.957031 47.382812 50.144531 C 47.539062 49.660156 47.707031 49.171875 47.707031 48.636719 C 47.707031 45.789062 45.242188 43.480469 42.203125 43.480469 C 40.882812 43.480469 39.726562 43.96875 38.78125 44.691406 C 38.160156 42.480469 36.109375 40.816406 33.554688 40.816406 C 31 40.816406 28.949219 42.480469 28.324219 44.691406 C 27.382812 43.96875 26.222656 43.480469 24.910156 43.480469 C 21.871094 43.480469 19.40625 45.789062 19.40625 48.636719 C 19.40625 49.171875 19.566406 49.660156 19.730469 50.144531 C 19.160156 49.957031 18.566406 49.804688 17.929688 49.804688 C 14.886719 49.804688 12.421875 52.113281 12.421875 54.960938 C 12.421875 56.257812 12.980469 57.410156 13.824219 58.320312 C 11.589844 58.972656 9.9375 60.859375 9.9375 63.171875 C 9.9375 65.480469 11.589844 67.367188 13.824219 68.019531 C 12.980469 68.929688 12.421875 70.082031 12.421875 71.378906 C 12.421875 74.226562 14.886719 76.535156 17.929688 76.535156 C 18.566406 76.535156 19.160156 76.382812 19.730469 76.191406 C 19.566406 76.679688 19.40625 77.167969 19.40625 77.703125 C 19.40625 80.550781 21.871094 82.859375 24.910156 82.859375 C 26.222656 82.859375 27.382812 82.371094 28.328125 81.648438 C 28.949219 83.859375 31.003906 85.523438 33.554688 85.523438 C 36.109375 85.523438 38.160156 83.859375 38.78125 81.648438 C 39.726562 82.371094 40.882812 82.859375 42.203125 82.859375 C 45.242188 82.859375 47.707031 80.550781 47.707031 77.703125 C 47.707031 77.167969 47.539062 76.679688 47.382812 76.191406 C 47.953125 76.382812 48.542969 76.535156 49.183594 76.535156 C 52.222656 76.535156 54.6875 74.226562 54.6875 71.378906 C 54.6875 70.082031 54.128906 68.929688 53.285156 68.019531 C 55.523438 67.367188 57.171875 65.480469 57.171875 63.171875 Z M 57.171875 63.171875 " fill-opacity="1" fill-rule="nonzero"/></g><path fill="#feea7d" d="M 49.015625 63.449219 C 49.015625 71.433594 42.09375 77.910156 33.554688 77.910156 C 25.019531 77.910156 18.09375 71.433594 18.09375 63.449219 C 18.09375 55.460938 25.019531 48.984375 33.554688 48.984375 C 42.09375 48.984375 49.015625 55.460938 49.015625 63.449219 Z M 49.015625 63.449219 " fill-opacity="1" fill-rule="nonzero"/><path fill="#ffffff" d="M 33.554688 78.734375 C 24.574219 78.734375 17.269531 71.878906 17.269531 63.449219 C 17.269531 55.019531 24.574219 48.164062 33.554688 48.164062 C 42.535156 48.164062 49.839844 55.019531 49.839844 63.449219 C 49.839844 71.878906 42.535156 78.734375 33.554688 78.734375 Z M 33.554688 49.808594 C 25.484375 49.808594 18.917969 55.929688 18.917969 63.449219 C 18.917969 70.96875 25.484375 77.085938 33.554688 77.085938 C 41.625 77.085938 48.1875 70.96875 48.1875 63.449219 C 48.1875 55.929688 41.625 49.808594 33.554688 49.808594 Z M 33.554688 49.808594 " fill-opacity="1" fill-rule="nonzero"/><path fill="#000000" d="M 33.699219 67.269531 C 32.53125 67.269531 31.441406 66.878906 30.78125 66.226562 C 30.355469 65.808594 30.128906 65.304688 30.125 64.777344 C 30.125 64.457031 30.382812 64.195312 30.707031 64.191406 C 31.027344 64.191406 31.289062 64.453125 31.289062 64.769531 C 31.292969 65.042969 31.460938 65.261719 31.601562 65.402344 C 32.046875 65.839844 32.859375 66.105469 33.726562 66.105469 C 34.578125 66.101562 35.382812 65.824219 35.828125 65.378906 C 35.96875 65.238281 36.136719 65.011719 36.132812 64.738281 C 36.132812 64.417969 36.390625 64.15625 36.714844 64.15625 C 37.035156 64.15625 37.296875 64.414062 37.296875 64.734375 C 37.300781 65.265625 37.078125 65.769531 36.652344 66.199219 C 35.992188 66.863281 34.898438 67.265625 33.730469 67.265625 C 33.71875 67.269531 33.710938 67.269531 33.699219 67.269531 Z M 33.699219 67.269531 " fill-opacity="1" fill-rule="nonzero"/><path fill="#000000" d="M 29.578125 61.925781 C 29.640625 63.007812 29.082031 63.933594 28.316406 63.976562 C 27.554688 64.023438 26.878906 63.183594 26.820312 62.097656 C 26.753906 61.007812 27.320312 60.09375 28.078125 60.042969 C 28.839844 59.996094 29.511719 60.839844 29.578125 61.925781 Z M 29.578125 61.925781 " fill-opacity="1" fill-rule="evenodd"/><path fill="#000000" d="M 40.292969 62.003906 C 40.359375 63.082031 39.789062 64.003906 39.035156 64.046875 C 38.273438 64.101562 37.59375 63.25 37.535156 62.160156 C 37.472656 61.082031 38.039062 60.167969 38.796875 60.121094 C 39.554688 60.070312 40.222656 60.914062 40.292969 62.003906 Z M 40.292969 62.003906 " fill-opacity="1" fill-rule="evenodd"/><path fill="#ffa400" d="M 27.300781 65.710938 C 27.300781 67.460938 25.878906 68.878906 24.125 68.878906 C 22.371094 68.878906 20.949219 67.460938 20.949219 65.710938 C 20.949219 63.960938 22.371094 62.539062 24.125 62.539062 C 25.878906 62.539062 27.300781 63.960938 27.300781 65.710938 Z M 27.300781 65.710938 " fill-opacity="1" fill-rule="nonzero"/><path fill="#ffa400" d="M 46.652344 65.710938 C 46.652344 67.460938 45.230469 68.878906 43.472656 68.878906 C 41.722656 68.878906 40.296875 67.460938 40.296875 65.710938 C 40.296875 63.960938 41.722656 62.539062 43.472656 62.539062 C 45.230469 62.539062 46.652344 63.960938 46.652344 65.710938 Z M 46.652344 65.710938 " fill-opacity="1" fill-rule="nonzero"/><path fill="#a4c71c" d="M 31.34375 99.585938 C 31.34375 99.585938 25.097656 86.007812 12.984375 86.355469 C 12.984375 86.355469 7.679688 104.890625 31.34375 99.585938 Z M 31.34375 99.585938 " fill-opacity="1" fill-rule="nonzero"/><path fill="#659a1c" d="M 30.066406 99.792969 C 30.003906 99.792969 29.9375 99.78125 29.875 99.757812 C 15.351562 94.5625 13.722656 87.761719 13.660156 87.476562 C 13.59375 87.167969 13.789062 86.867188 14.09375 86.800781 C 14.402344 86.734375 14.703125 86.929688 14.769531 87.234375 C 14.789062 87.316406 16.433594 93.746094 30.257812 98.691406 C 30.550781 98.796875 30.707031 99.121094 30.601562 99.417969 C 30.519531 99.648438 30.300781 99.792969 30.066406 99.792969 Z M 30.066406 99.792969 " fill-opacity="1" fill-rule="nonzero"/><path fill="#a4c71c" d="M 36.695312 95.214844 C 36.695312 95.214844 41.8125 84.097656 51.726562 84.382812 C 51.726562 84.382812 56.070312 99.558594 36.695312 95.214844 Z M 36.695312 95.214844 " fill-opacity="1" fill-rule="nonzero"/><path fill="#659a1c" d="M 51.875 85.011719 C 51.792969 84.617188 51.726562 84.382812 51.726562 84.382812 C 51.511719 84.378906 51.335938 84.445312 51.128906 84.449219 C 50.234375 85.738281 46.183594 90.917969 37.039062 94.554688 C 36.828125 94.949219 36.695312 95.214844 36.695312 95.214844 C 36.992188 95.28125 37.234375 95.304688 37.523438 95.363281 C 46.792969 91.632812 50.871094 86.476562 51.875 85.011719 Z M 51.875 85.011719 " fill-opacity="1" fill-rule="nonzero"/><g transform="matrix(1, 0, 0, 1, 198, 31)"><g clip-path="url(#168064c8a8)"><g fill="#000000" fill-opacity="1"><g transform="translate(11.002608, 63.688978)"><g><path d="M 30.6875 -36.375 L 30.6875 -25.5 C 31.507812 -27.09375 32.691406 -28.363281 34.234375 -29.3125 C 35.773438 -30.269531 37.644531 -30.75 39.84375 -30.75 C 42.113281 -30.75 44.117188 -30.195312 45.859375 -29.09375 C 47.609375 -28 48.96875 -26.492188 49.9375 -24.578125 C 50.90625 -22.660156 51.390625 -20.472656 51.390625 -18.015625 C 51.390625 -15.378906 50.882812 -13.101562 49.875 -11.1875 C 48.875 -9.269531 47.5 -7.800781 45.75 -6.78125 C 44 -5.757812 42.007812 -5.25 39.78125 -5.25 C 38.445312 -5.25 37.257812 -5.378906 36.21875 -5.640625 L 36.21875 -10.265625 C 36.769531 -10.117188 37.457031 -10.046875 38.28125 -10.046875 C 40.363281 -10.046875 42.082031 -10.742188 43.4375 -12.140625 C 44.789062 -13.535156 45.46875 -15.457031 45.46875 -17.90625 C 45.46875 -20.21875 44.769531 -22.097656 43.375 -23.546875 C 41.988281 -24.992188 40.234375 -25.71875 38.109375 -25.71875 C 35.648438 -25.71875 33.796875 -24.898438 32.546875 -23.265625 C 31.304688 -21.628906 30.6875 -19.675781 30.6875 -17.40625 L 30.6875 0 L 25.046875 0 L 25.046875 -10.203125 C 24.191406 -8.609375 22.945312 -7.328125 21.3125 -6.359375 C 19.675781 -5.390625 17.707031 -4.90625 15.40625 -4.90625 C 13.09375 -4.90625 11.039062 -5.441406 9.25 -6.515625 C 7.46875 -7.597656 6.082031 -9.113281 5.09375 -11.0625 C 4.113281 -13.019531 3.625 -15.300781 3.625 -17.90625 C 3.625 -20.476562 4.125 -22.726562 5.125 -24.65625 C 6.132812 -26.59375 7.550781 -28.09375 9.375 -29.15625 C 11.195312 -30.21875 13.28125 -30.75 15.625 -30.75 C 17.851562 -30.75 19.765625 -30.28125 21.359375 -29.34375 C 22.960938 -28.414062 24.191406 -27.171875 25.046875 -25.609375 L 25.046875 -36.375 L -1.34375 -36.375 L -1.34375 -41.296875 L 56.296875 -41.296875 L 56.296875 -36.375 Z M 17.296875 -9.8125 C 18.972656 -9.8125 20.394531 -10.203125 21.5625 -10.984375 C 22.738281 -11.765625 23.613281 -12.769531 24.1875 -14 C 24.757812 -15.226562 25.046875 -16.492188 25.046875 -17.796875 C 25.046875 -19.921875 24.375 -21.769531 23.03125 -23.34375 C 21.695312 -24.925781 19.785156 -25.71875 17.296875 -25.71875 C 15.097656 -25.71875 13.253906 -25 11.765625 -23.5625 C 10.285156 -22.132812 9.546875 -20.234375 9.546875 -17.859375 C 9.546875 -15.398438 10.269531 -13.441406 11.71875 -11.984375 C 13.164062 -10.535156 15.023438 -9.8125 17.296875 -9.8125 Z M 17.296875 -9.8125 "/></g></g></g><g fill="#000000" fill-opacity="1"><g transform="translate(66.007038, 63.688978)"><g><path d="M 5.46875 0 L 5.46875 -36.375 L -1.34375 -36.375 L -1.34375 -41.296875 L 18.140625 -41.296875 L 18.140625 -36.375 L 11.328125 -36.375 L 11.328125 0 Z M 5.46875 0 "/></g></g></g><g fill="#000000" fill-opacity="1"><g transform="translate(82.798375, 63.688978)"><g><path d="M -4.75 -49.9375 C -4.75 -48.894531 -5.097656 -48.019531 -5.796875 -47.3125 C -6.503906 -46.601562 -7.378906 -46.25 -8.421875 -46.25 C -9.460938 -46.25 -10.34375 -46.601562 -11.0625 -47.3125 C -11.789062 -48.019531 -12.15625 -48.894531 -12.15625 -49.9375 C -12.15625 -50.976562 -11.789062 -51.851562 -11.0625 -52.5625 C -10.34375 -53.269531 -9.460938 -53.625 -8.421875 -53.625 C -7.378906 -53.625 -6.503906 -53.269531 -5.796875 -52.5625 C -5.097656 -51.851562 -4.75 -50.976562 -4.75 -49.9375 Z M -4.75 -49.9375 "/></g></g></g><g fill="#000000" fill-opacity="1"><g transform="translate(82.798375, 63.688978)"><g><path d="M 20.09375 -25.609375 C 16.96875 -25.609375 14.414062 -24.796875 12.4375 -23.171875 C 10.46875 -21.554688 9.484375 -19.207031 9.484375 -16.125 C 9.484375 -13.476562 10.359375 -11.3125 12.109375 -9.625 C 13.859375 -7.9375 16.109375 -7.09375 18.859375 -7.09375 C 21.679688 -7.09375 23.96875 -7.972656 25.71875 -9.734375 C 27.46875 -11.503906 28.34375 -13.785156 28.34375 -16.578125 L 33.921875 -16.578125 C 33.921875 -13.710938 33.304688 -11.171875 32.078125 -8.953125 C 30.847656 -6.742188 29.097656 -5.035156 26.828125 -3.828125 C 24.566406 -2.617188 21.945312 -2.015625 18.96875 -2.015625 C 16.03125 -2.015625 13.390625 -2.609375 11.046875 -3.796875 C 8.703125 -4.984375 6.878906 -6.644531 5.578125 -8.78125 C 4.273438 -10.925781 3.625 -13.375 3.625 -16.125 C 3.625 -19.132812 4.289062 -21.726562 5.625 -23.90625 C 6.96875 -26.082031 8.847656 -27.738281 11.265625 -28.875 C 13.679688 -30.007812 16.507812 -30.578125 19.75 -30.578125 L 20.59375 -30.578125 L 20.59375 -36.375 L -1.34375 -36.375 L -1.34375 -41.296875 L 37.546875 -41.296875 L 37.546875 -36.375 L 26.34375 -36.375 L 26.34375 -25.609375 Z M 20.09375 -25.609375 "/></g></g></g><g fill="#000000" fill-opacity="1"><g transform="translate(114.60678, 63.688978)"><g><path d="M -11.046875 -41.0625 C -12.867188 -43.925781 -14.351562 -45.976562 -15.5 -47.21875 C -16.65625 -48.46875 -17.78125 -49.285156 -18.875 -49.671875 C -19.976562 -50.066406 -21.5 -50.265625 -23.4375 -50.265625 L -25.953125 -50.265625 L -25.953125 -55.078125 L -23.546875 -55.078125 C -20.679688 -55.035156 -18.421875 -54.722656 -16.765625 -54.140625 C -15.109375 -53.566406 -13.429688 -52.3125 -11.734375 -50.375 C -10.046875 -48.445312 -7.976562 -45.34375 -5.53125 -41.0625 Z M -11.046875 -41.0625 "/></g></g></g></g></g></svg>